<svg id="Layer_1" data-name="Layer 1" xmlns="http://www.w3.org/2000/svg" viewBox="0 0 34.56 34.55"><defs><style>.cls-1{fill:#3c3b3a;}</style></defs><title>climbing</title><path id="Icon_map-climbing" data-name="Icon map-climbing" class="cls-1" d="M292.64,393a3.81,3.81,0,0,0-.37,1.63l.14,8.73-3,6.5a2,2,0,0,0,3.46,1.89l3.33-7.1a2.46,2.46,0,0,0,.15-.53l0-.27,0-5.4,5.12,2.23.83,5.27a2,2,0,0,0,3.87-.13,2.44,2.44,0,0,0,0-.54l-1-6.37a2,2,0,0,0-1.1-1.41l-4.57-2,2.91-5.05,1.44,1.83a1.67,1.67,0,0,0,.56.39l5.51,1.6a1.55,1.55,0,0,0,.91-2.95l-.08,0-4.78-1.4-3.6-4.3a3.61,3.61,0,0,0-2.1-1.11,3.56,3.56,0,0,0-3.58,1.65Zm15.8,12.52-.34,2.61-9.48,2.3.09,1.61h23.1a1.46,1.46,0,0,0,1.48-1.46h0l0-31-3.17-.73L318.28,387l-3,1.27-2.7,7.52,2.57,5.75-.72,2.21ZM302,384.11a2.94,2.94,0,1,0-2.95-2.94A2.94,2.94,0,0,0,302,384.11Zm-5.86.46a.84.84,0,0,0-.31-1.14h0l-1.43-.83a.86.86,0,0,0-1.16.31l-4.4,7.57a.84.84,0,0,0,.31,1.14h0l1.43.83a.85.85,0,0,0,1.15-.3Z" transform="translate(-288.73 -378.23)"/></svg>