<svg id="Layer_1" data-name="Layer 1" xmlns="http://www.w3.org/2000/svg" viewBox="0 0 33.96 33.96"><defs><style>.cls-1{fill:#3c3b3a;}</style></defs><title>fitness</title><path id="Icon_map-gym" data-name="Icon map-gym" class="cls-1" d="M300.89,410a.72.72,0,0,1,0,1l-1.56,1.46a.72.72,0,0,1-1,0l-9.11-9.81a.72.72,0,0,1,0-1l1.57-1.46a.7.7,0,0,1,1,0Zm11.62-18.47a.73.73,0,0,1,0,1l-9.84,9.19a.72.72,0,0,1-1,0l-2.35-2.54a.72.72,0,0,1,0-1l9.84-9.19a.71.71,0,0,1,1,0h0Zm-8.28,15.34a.72.72,0,0,1,0,1l-1.57,1.46a.72.72,0,0,1-1,0l-9.1-9.81a.72.72,0,0,1,0-1l1.56-1.46a.72.72,0,0,1,1,0Zm15.17-15a.72.72,0,0,1,0,1l-1.56,1.46a.72.72,0,0,1-1,0l-9.1-9.81a.72.72,0,0,1,0-1l1.57-1.47a.71.71,0,0,1,1,0h0l9.1,9.81Zm3.34-3.12a.72.72,0,0,1,0,1l-1.57,1.46a.71.71,0,0,1-1,0h0l-9.1-9.81a.72.72,0,0,1,0-1l1.57-1.46a.71.71,0,0,1,1,0h0Z" transform="translate(-288.97 -378.66)"/></svg>