<svg id="Layer_1" data-name="Layer 1" xmlns="http://www.w3.org/2000/svg" viewBox="0 0 34.88 34.87"><defs><style>.cls-1{fill:#3c3b3a;}</style></defs><title>indoor</title><path id="Icon_awesome-basketball-ball" data-name="Icon awesome-basketball-ball" class="cls-1" d="M303.44,378.37a17.23,17.23,0,0,0-8.59,3.78l5.44,5.44A15.6,15.6,0,0,0,303.44,378.37ZM306,393.25l11.1-11.1a17.34,17.34,0,0,0-10.23-3.94A19,19,0,0,1,302.7,390Zm-13.49-8.71a17.26,17.26,0,0,0-3.78,8.59A15.6,15.6,0,0,0,297.9,390ZM311.6,398.9a19,19,0,0,1,11.79-4.13,17.4,17.4,0,0,0-3.95-10.23l-11.1,11.1,3.26,3.26ZM306,398l-11.1,11.1a17.4,17.4,0,0,0,10.23,3.95,19,19,0,0,1,4.13-11.79Zm13.49,8.71a17.33,17.33,0,0,0,3.79-8.59A15.79,15.79,0,0,0,314,401.3Zm-19.13-14.35a19,19,0,0,1-11.8,4.13,17.41,17.41,0,0,0,3.95,10.22l11.1-11.1Zm8.15,20.53a17.4,17.4,0,0,0,8.59-3.78l-5.44-5.45a15.79,15.79,0,0,0-3.15,9.23Z" transform="translate(-288.51 -378.21)"/></svg>